<?xml version="1.0" standalone="no"?>
<!DOCTYPE svg PUBLIC "-//W3C//DTD SVG 20010904//EN"
 "http://www.w3.org/TR/2001/REC-SVG-20010904/DTD/svg10.dtd">
<svg version="1.0" xmlns="http://www.w3.org/2000/svg"
 width="180.000000pt" height="176.000000pt" viewBox="0 0 180.000000 176.000000"
 preserveAspectRatio="xMidYMid meet">

<g transform="translate(0.000000,176.000000) scale(0.100000,-0.100000)"
fill="#000000" stroke="none">
<path d="M820 1704 c-279 -50 -484 -191 -599 -413 -58 -113 -82 -199 -88 -326
-17 -322 145 -599 432 -741 132 -65 196 -79 350 -79 151 1 217 15 341 75 187
90 334 257 400 452 36 107 50 238 37 341 -53 391 -362 677 -748 692 -55 2
-111 2 -125 -1z m280 -50 c197 -48 387 -198 484 -384 115 -219 112 -499 -7
-706 -27 -47 -32 -51 -43 -36 -16 20 -18 42 -4 42 6 0 10 11 10 24 0 13 6 26
13 29 9 3 9 9 -1 26 -11 19 -10 21 10 21 40 0 52 16 49 62 0 10 -16 24 -33 32
-28 12 -30 14 -10 15 24 1 23 1 27 46 4 59 -27 79 -88 56 -19 -8 -24 -16 -22
-42 1 -18 9 -38 18 -43 13 -9 13 -11 -6 -21 -30 -14 -32 -46 -7 -73 l21 -23
-24 6 c-14 4 -28 2 -31 -4 -4 -7 1 -11 14 -11 29 0 82 -29 75 -40 -4 -7 -13
-7 -24 -1 -10 6 -31 8 -47 6 -16 -2 -32 -4 -36 -4 -5 -1 -8 -9 -8 -20 0 -10
-10 -25 -22 -34 -22 -14 -22 -15 -5 -34 27 -30 20 -37 -13 -13 -35 25 -64 23
-68 -5 -3 -23 69 -105 91 -105 22 0 40 27 34 52 -6 22 -3 23 43 23 56 0 58 4
-35 -93 -368 -389 -1027 -265 -1235 233 -16 41 -38 119 -47 174 -15 86 -16
113 -5 195 44 351 297 612 645 667 69 10 206 3 287 -17z m454 -780 c21 -8 20
-34 -1 -34 -15 0 -14 -2 3 -14 15 -12 17 -17 6 -28 -10 -10 -17 -10 -39 2 -30
17 -46 47 -19 37 11 -4 16 -1 16 12 0 28 9 35 34 25z m-8 -118 c14 -11 16 -17
7 -26 -14 -15 -33 -5 -33 16 0 8 -4 12 -10 9 -19 -12 -10 -31 22 -43 32 -12
64 0 52 19 -3 5 0 9 5 9 12 0 14 -11 5 -34 -10 -25 -61 -20 -90 9 -21 21 -23
29 -14 40 16 19 31 19 56 1z m-76 -172 c0 -7 11 -21 24 -29 26 -17 42 -45 26
-45 -6 0 -10 8 -10 18 -1 16 -1 16 -14 0 -27 -36 -61 -17 -61 35 0 20 4 26 15
22 12 -5 13 -4 3 6 -18 18 -16 34 2 19 8 -7 15 -19 15 -26z m48 23 c7 -8 6
-17 -3 -30 -12 -17 -14 -17 -29 5 -9 12 -16 26 -16 30 0 13 37 9 48 -5z m-88
-41 c0 -3 -4 -8 -10 -11 -5 -3 -10 -1 -10 4 0 6 5 11 10 11 6 0 10 -2 10 -4z
m-76 -40 c-21 -15 -30 -14 -19 3 3 6 14 11 23 11 13 0 13 -2 -4 -14z m62 -32
c16 -23 16 -26 1 -42 -22 -22 -47 -1 -27 22 10 13 9 17 -4 22 -9 3 -23 3 -32
0 -14 -5 -15 -4 -4 9 19 23 47 18 66 -11z"/>
<path d="M975 1621 c2 -11 1 -30 -3 -43 l-6 -23 -6 25 c-8 35 -57 41 -69 8
l-8 -23 -7 23 c-4 12 -14 22 -23 22 -13 0 -13 -3 -3 -15 8 -9 10 -29 7 -50 -6
-38 7 -48 18 -14 l7 21 15 -21 c18 -27 38 -27 57 1 13 18 16 19 16 6 0 -28 32
-39 63 -23 23 12 27 12 27 -1 0 -8 11 -20 25 -26 58 -26 92 70 39 111 -33 26
-47 27 -39 2 4 -14 0 -23 -15 -31 -16 -9 -20 -8 -20 5 0 9 -6 18 -14 21 -9 3
-12 12 -9 21 4 11 2 14 -5 9 -7 -4 -12 -2 -12 3 0 6 -9 11 -19 11 -14 0 -19
-6 -16 -19z m-42 -31 c-13 -5 -23 -16 -23 -25 0 -17 26 -21 33 -5 3 6 4 5 3
-2 -4 -19 -35 -22 -42 -4 -10 25 3 46 28 45 l23 0 -22 -9z m102 -30 c0 -18 -6
-26 -23 -28 -24 -4 -38 18 -28 44 3 9 15 14 28 12 17 -2 23 -10 23 -28z m103
-6 c4 -31 -24 -57 -49 -44 -26 15 -25 50 2 50 12 0 17 4 13 11 -4 7 1 10 12 7
11 -2 20 -13 22 -24z"/>
<path d="M753 1618 c-14 -19 -15 -88 -2 -104 14 -17 69 -10 81 10 13 20 8 74
-8 90 -19 19 -58 21 -71 4z m67 -24 c12 -31 12 -35 0 -54 -8 -13 -11 -12 -24
5 -15 20 -15 20 -16 -2 0 -26 -15 -31 -24 -8 -6 18 2 45 15 45 5 0 9 4 9 10 0
5 -7 7 -15 4 -8 -4 -15 -2 -15 4 0 6 6 13 13 15 29 12 48 6 57 -19z"/>
<path d="M600 1570 c-13 -9 -13 -12 1 -23 14 -10 14 -14 2 -25 -7 -7 -11 -18
-7 -23 3 -6 -3 -5 -14 2 -25 16 -42 4 -20 -14 22 -17 28 -43 15 -57 -9 -10 -9
-11 3 -8 8 3 16 15 18 27 3 18 6 20 18 10 21 -18 62 4 70 37 14 55 -43 104
-86 74z m65 -51 c0 -30 -3 -34 -27 -37 -22 -3 -28 1 -28 17 0 11 8 25 18 30 9
6 13 11 9 11 -5 0 -5 5 -2 11 13 20 30 2 30 -32z"/>
<path d="M1245 1530 c46 -18 59 -71 23 -94 -13 -8 -22 -6 -37 8 -28 26 -26 40
4 32 20 -5 25 -3 25 13 0 20 -22 33 -43 25 -7 -2 -14 -20 -15 -38 -3 -45 21
-70 61 -62 23 5 28 3 23 -9 -8 -21 37 -70 57 -62 28 10 37 41 22 70 -12 23
-11 26 3 30 10 3 1 5 -18 6 -20 0 -40 -3 -46 -9 -7 -7 -9 1 -6 24 4 38 -24 77
-55 75 -15 0 -15 -2 2 -9z m115 -136 c0 -20 -4 -25 -21 -22 -31 4 -46 32 -30
52 19 22 51 3 51 -30z"/>
<path d="M500 1470 c-11 -11 -24 -20 -30 -20 -5 0 -10 -9 -10 -20 0 -11 6 -20
13 -20 9 0 8 -3 -2 -9 -7 -5 -10 -15 -7 -22 4 -8 -1 -4 -12 9 l-20 22 -32 -28
c-27 -25 -52 -91 -29 -76 5 3 9 -1 9 -9 0 -28 30 -28 56 0 13 14 27 24 30 21
3 -3 -6 -18 -21 -33 -36 -40 -21 -45 18 -7 28 28 30 35 19 52 -16 26 -15 41 2
34 8 -3 28 5 45 17 35 26 42 67 15 93 -20 20 -20 20 -44 -4z m48 -34 c2 -10
-1 -23 -8 -30 -8 -8 -9 -7 -4 7 5 13 1 20 -15 24 -11 3 -18 10 -15 15 9 15 38
4 42 -16z m-48 -10 c0 4 5 3 12 -4 8 -8 8 -15 -2 -27 -17 -20 -34 -19 -26 1 4
9 1 24 -6 33 -12 14 -11 14 5 2 9 -7 17 -10 17 -5z m-40 -65 c0 -13 -26 -32
-33 -24 -4 3 -7 -3 -7 -15 0 -13 -6 -22 -15 -22 -21 0 -19 20 7 47 21 23 48
31 48 14z m-60 -11 c0 -5 -5 -10 -11 -10 -5 0 -7 5 -4 10 3 6 8 10 11 10 2 0
4 -4 4 -10z"/>
<path d="M820 1430 c-112 -20 -200 -70 -285 -162 -93 -100 -135 -207 -135
-343 0 -140 52 -267 148 -363 195 -195 513 -204 708 -20 72 68 109 121 140
204 139 369 -185 753 -576 684z m132 -44 c13 -19 9 -26 -13 -26 -18 0 -19 2
-9 15 10 12 10 15 -3 15 -9 0 -19 5 -23 11 -9 15 38 0 48 -15z m54 3 c9 -15
-23 -10 -35 5 -10 12 -8 13 9 9 11 -3 23 -9 26 -14z m-116 1 c12 -8 12 -10 -5
-10 -11 0 -27 5 -35 10 -12 8 -12 10 5 10 11 0 27 -5 35 -10z m178 -13 c9 -7
9 -13 1 -23 -9 -11 -6 -14 15 -14 24 0 26 2 15 21 -9 17 -8 20 3 14 33 -20 38
-27 27 -41 -9 -11 -7 -14 10 -14 12 0 24 -7 27 -15 4 -8 12 -15 20 -15 21 0
17 14 -8 25 -12 6 -24 16 -26 23 -3 9 6 8 32 -5 20 -9 36 -20 36 -25 0 -4 6
-8 13 -8 8 0 19 -11 25 -25 6 -14 7 -25 2 -25 -5 0 -12 9 -15 20 -6 18 -8 18
-21 5 -12 -12 -20 -13 -37 -4 -13 6 -7 -3 16 -25 20 -19 37 -39 37 -43 0 -17
-18 -35 -29 -29 -13 9 -14 0 -2 -23 6 -10 6 -23 1 -32 -8 -12 -12 -11 -27 5
-17 18 -17 18 0 13 9 -4 17 -2 17 4 0 7 -10 9 -23 5 -14 -3 -32 1 -43 9 -18
14 -18 14 4 15 22 0 28 10 15 23 -3 4 -12 2 -20 -5 -10 -8 -23 -7 -51 5 -72
32 -97 40 -114 38 -10 -1 -18 3 -18 9 0 8 13 10 43 5 32 -4 38 -3 25 5 -10 6
-18 15 -18 21 0 5 9 4 20 -3 11 -7 20 -21 20 -30 0 -12 8 -18 21 -18 18 0 19
2 9 15 -7 8 -8 15 -2 15 14 0 33 -26 25 -34 -4 -4 -1 -11 7 -16 24 -15 31 -11
20 10 -10 18 -8 20 24 20 27 0 34 4 30 15 -5 11 -9 12 -25 2 -16 -10 -25 -9
-50 6 -17 9 -37 17 -45 17 -9 0 -12 5 -9 11 4 6 1 9 -6 8 -8 -1 -33 2 -57 6
-30 5 -40 11 -30 17 10 7 9 11 -6 23 -23 17 -18 19 18 5 14 -5 26 -16 26 -25
0 -10 9 -15 26 -15 l26 0 -23 20 c-13 10 -19 19 -14 19 15 0 45 -25 45 -38 0
-6 2 -11 4 -11 2 0 13 -3 23 -6 15 -6 16 -4 6 7 -21 21 -15 34 6 15 11 -10 17
-24 15 -31 -3 -7 4 -15 14 -17 16 -5 18 -1 14 16 -5 19 -4 19 11 7 15 -11 17
-11 17 2 0 8 -8 17 -17 20 -10 3 -45 17 -78 31 -33 14 -65 24 -72 21 -7 -2
-15 1 -19 7 -5 7 8 9 42 4 37 -5 45 -4 32 4 -10 6 -18 16 -18 21 0 10 13 5 38
-14z m-208 -27 c0 -9 6 -22 12 -28 10 -10 10 -15 -2 -22 -22 -14 -34 -12 -21
4 9 11 7 15 -9 19 -11 3 -23 1 -26 -4 -3 -5 -16 -9 -30 -9 -14 0 -22 -4 -19
-10 4 -6 -7 -10 -27 -9 -28 0 -30 1 -12 9 12 4 24 16 28 25 3 10 12 15 21 11
8 -3 17 -1 20 4 4 6 -9 11 -27 11 -29 2 -30 2 -6 6 15 2 36 0 47 -6 14 -8 20
-7 25 4 4 11 -2 15 -22 15 -20 0 -23 3 -13 9 19 12 61 -8 61 -29z m43 12 c-9
-6 -7 -12 7 -25 26 -22 25 -37 -1 -37 -17 0 -19 3 -10 14 10 11 8 16 -8 21
-28 9 -27 35 2 35 14 0 18 -3 10 -8z m-73 -66 c0 -8 11 -17 24 -20 30 -7 42
-35 18 -42 -9 -3 -26 -10 -36 -16 -16 -9 -18 -7 -13 11 4 17 1 21 -19 21 -14
0 -27 7 -31 15 -8 22 6 33 21 15 18 -24 57 -43 67 -33 5 5 -6 14 -26 22 -34
12 -42 21 -28 34 11 12 23 8 23 -7z m88 -22 c23 -16 21 -34 -4 -34 -8 0 -12 5
-9 11 4 6 -1 17 -11 24 -26 20 -4 19 24 -1z m-160 -6 c-3 -7 -12 -14 -21 -16
-12 -2 -15 1 -11 12 7 19 38 22 32 4z m217 2 c3 -5 2 -10 -4 -10 -5 0 -13 5
-16 10 -3 6 -2 10 4 10 5 0 13 -4 16 -10z m275 -25 c10 -12 10 -15 -3 -15 -8
0 -20 7 -27 15 -10 12 -10 15 3 15 8 0 20 -7 27 -15z m-564 -20 c5 -19 13 -25
33 -25 15 0 32 5 38 11 8 8 13 8 18 -1 4 -7 -1 -13 -13 -17 -18 -4 -21 -16
-28 -101 -4 -54 -4 -177 -1 -274 l6 -178 -23 0 c-13 0 -30 -9 -37 -21 -16 -24
-48 -20 -88 10 -19 15 -21 21 -13 38 8 14 8 23 0 31 -9 9 -1 12 34 12 77 0
108 10 108 34 0 11 -16 73 -35 136 -19 63 -35 132 -35 153 0 35 -1 37 -34 37
-33 0 -34 0 -38 -52 -5 -53 -63 -255 -78 -272 -10 -10 -35 36 -45 82 -6 29 -4
34 14 39 18 5 21 13 21 58 0 45 -3 55 -20 60 -23 7 -22 20 7 87 14 33 18 36
36 26 17 -9 25 -6 49 23 20 24 26 41 23 59 -5 22 0 29 37 47 55 28 56 28 64
-2z m612 -10 c-3 -29 -20 -32 -39 -9 -12 15 -11 16 8 10 18 -6 21 -4 16 15 -4
15 -3 20 5 15 7 -4 11 -18 10 -31z m-499 16 c9 -6 11 -16 7 -27 -6 -15 -9 -16
-16 -4 -5 8 -7 17 -4 21 2 4 -8 10 -23 12 -27 4 -27 4 -3 5 14 1 31 -2 39 -7z
m533 -83 c-9 -9 -16 -7 -31 6 -18 16 -19 16 -25 -10 -5 -18 -2 -32 7 -41 13
-13 14 -11 10 11 -6 31 9 34 37 6 l20 -20 0 21 c0 11 4 18 9 15 12 -8 8 -30
-7 -49 -8 -10 -9 -17 -3 -21 5 -4 10 -14 10 -24 0 -9 2 -28 3 -41 2 -19 -3
-26 -24 -32 -22 -6 -26 -4 -20 10 5 14 3 14 -12 -2 -10 -10 -15 -24 -12 -34 6
-14 8 -14 21 3 12 18 14 18 20 2 6 -16 9 -16 31 -1 22 14 24 14 18 -1 -4 -11
-1 -16 10 -16 9 0 16 -7 16 -15 0 -12 -18 -15 -100 -15 -82 0 -100 3 -100 15
0 10 11 15 35 15 42 0 44 11 11 79 -13 28 -18 47 -11 45 23 -9 36 20 22 49
-15 33 -29 35 -21 3 7 -28 -11 -43 -32 -25 -8 6 -12 14 -9 17 2 3 11 -1 19 -7
12 -10 14 -6 10 29 -3 38 -3 40 17 30 19 -10 20 -10 10 9 -15 27 -14 36 2 22
8 -6 17 -8 20 -4 4 3 15 -1 26 -11 18 -16 18 -16 14 11 -3 27 -3 27 8 5 9 -17
9 -26 1 -34z m58 -93 c0 -8 -4 -17 -10 -20 -6 -4 -10 5 -10 20 0 15 4 24 10
20 6 -3 10 -12 10 -20z m-450 -29 c0 -3 9 -51 21 -108 28 -142 30 -229 5 -257
-24 -27 -67 -27 -91 -1 -28 31 -23 75 36 318 7 28 16 52 21 52 4 0 8 -2 8 -4z
m451 -49 c-8 -8 -11 -5 -11 9 0 27 14 41 18 19 2 -9 -1 -22 -7 -28z m19 -102
c0 -12 -13 -15 -60 -15 -47 0 -60 3 -60 15 0 12 13 15 60 15 47 0 60 -3 60
-15z m-10 -57 c0 -43 -10 -47 -124 -45 -125 2 -145 15 -74 47 31 14 65 20 121
20 73 0 77 -1 77 -22z m-20 -63 c0 -4 -7 -19 -15 -35 -14 -28 -19 -30 -73 -30
-62 0 -125 26 -130 54 -3 14 10 16 107 16 61 0 111 -2 111 -5z m-40 -82 c-1
-5 -9 -18 -19 -30 -22 -26 -64 -32 -55 -8 4 8 1 22 -6 30 -11 13 -6 15 34 15
25 0 46 -3 46 -7z m-390 -70 c37 -19 70 -28 113 -29 l62 -3 -62 9 c-64 9 -138
40 -115 48 31 10 144 -10 163 -29 18 -18 18 -21 4 -43 -50 -76 -289 -87 -367
-17 -57 51 -17 88 99 90 37 1 65 -6 103 -26z m325 -13 c-3 -5 -28 -10 -56 -10
-27 0 -49 5 -49 10 0 6 25 10 56 10 34 0 53 -4 49 -10z"/>
<path d="M1172 1192 c8 -9 13 -10 18 -2 4 6 15 8 25 4 12 -5 16 -4 11 4 -4 6
-20 10 -35 9 -23 -2 -27 -5 -19 -15z"/>
<path d="M1310 1097 c0 -9 -5 -17 -11 -17 -8 0 -7 -5 2 -16 12 -15 14 -14 23
5 6 15 6 25 -2 33 -9 9 -12 8 -12 -5z"/>
<path d="M1273 1030 c-10 -14 -9 -21 1 -29 10 -9 15 -7 21 6 6 16 8 16 27 -7
l20 -25 -3 25 c-2 14 -7 23 -10 20 -4 -3 -15 3 -26 12 -18 16 -19 16 -30 -2z"/>
<path d="M865 605 c-16 -8 -55 -15 -85 -16 -41 -2 -46 -3 -20 -6 47 -6 113 5
136 22 24 18 8 18 -31 0z"/>
<path d="M1393 1369 c-2 -25 -22 -51 -34 -43 -5 3 -9 1 -9 -4 0 -16 13 -21 30
-12 15 8 17 6 13 -10 -8 -29 23 -70 51 -70 49 0 66 64 31 117 -18 26 -19 26
-24 8 -4 -11 -15 -20 -27 -21 -16 0 -20 5 -16 22 2 12 0 24 -5 27 -5 3 -10 -3
-10 -14z m52 -59 c3 -5 12 -7 19 -4 19 7 25 -7 15 -33 -16 -43 -69 -19 -69 31
0 17 25 22 35 6z"/>
<path d="M1580 920 c0 -5 5 -10 11 -10 5 0 7 5 4 10 -3 6 -8 10 -11 10 -2 0
-4 -4 -4 -10z"/>
<path d="M224 892 c-18 -12 -21 -34 -8 -71 8 -24 19 -37 33 -39 20 -3 20 -5 4
-28 -13 -20 -14 -30 -5 -49 16 -34 65 -33 115 0 41 28 43 34 25 57 -15 18 -48
31 -48 19 0 -5 -9 -7 -20 -4 -19 5 -20 7 -4 24 9 10 13 23 9 28 -3 6 -8 21
-10 33 -3 12 -10 25 -17 30 -16 10 -59 10 -74 0z m60 -8 c25 -10 19 -24 -11
-25 -16 0 -22 -3 -15 -6 16 -6 15 -23 -2 -23 -23 0 -29 33 -10 47 21 15 18 15
38 7z m16 -60 c0 -21 -47 -41 -62 -26 -9 9 -7 12 9 12 23 0 47 23 35 35 -4 5
-1 5 6 1 6 -4 12 -14 12 -22z m-1 -74 c-24 -20 -24 -20 -5 -35 18 -13 22 -13
43 0 13 9 23 13 23 10 0 -2 -11 -12 -24 -20 -19 -13 -29 -14 -45 -5 -26 13
-27 45 -3 59 29 17 36 12 11 -9z m81 -13 c0 -18 -2 -19 -10 -7 -13 20 -13 43
0 35 6 -3 10 -16 10 -28z"/>
<path d="M325 653 c-22 -3 -44 -8 -49 -13 -9 -9 37 -5 104 10 38 9 15 10 -55
3z"/>
<path d="M1440 652 c0 -4 9 -8 20 -9 11 -1 18 2 15 8 -7 11 -35 12 -35 1z"/>
<path d="M415 632 c-31 -5 -81 -30 -94 -46 -9 -11 -9 -17 2 -28 8 -7 19 -23
26 -36 16 -30 37 -28 73 8 17 17 32 29 35 27 2 -3 -10 -18 -28 -35 -26 -24
-31 -35 -25 -57 6 -24 10 -26 49 -23 l42 4 0 42 c0 27 4 42 13 42 6 0 12 4 12
9 0 17 -28 31 -46 24 -17 -6 -17 -5 -6 9 25 30 -10 69 -53 60z m39 -34 c16
-26 0 -32 -23 -9 -12 12 -21 24 -21 27 0 12 33 -2 44 -18z m-65 -7 c18 -11 7
-41 -15 -41 -14 0 -15 2 -3 16 12 15 11 16 -9 10 -23 -8 -32 8 -9 17 18 8 21
8 36 -2z m21 -56 c-7 -8 -22 -15 -34 -14 l-21 0 22 9 c12 5 25 19 29 32 7 19
8 20 12 5 2 -10 -2 -24 -8 -32z m87 9 c-3 -3 -12 -4 -19 -1 -8 3 -5 6 6 6 11
1 17 -2 13 -5z m-16 -63 c-14 -25 -46 -28 -56 -4 -4 12 1 24 16 36 19 16 24
16 37 4 11 -12 11 -19 3 -36z"/>
<path d="M520 479 c-14 -11 -19 -18 -12 -14 6 3 12 2 12 -3 0 -10 -26 -24 -45
-26 -5 -1 -11 -9 -13 -20 -3 -11 0 -16 7 -12 10 7 15 -11 12 -40 -1 -6 6 -17
14 -24 23 -19 45 3 27 28 -23 32 -25 44 -9 59 13 14 19 14 32 3 8 -7 16 -11
18 -9 27 47 28 51 16 65 -16 19 -29 17 -59 -7z m50 -9 c0 -5 -2 -10 -4 -10 -3
0 -8 5 -11 10 -3 6 -1 10 4 10 6 0 11 -4 11 -10z"/>
<path d="M589 438 c-6 -13 -18 -27 -25 -31 -20 -12 -17 -64 4 -75 41 -22 86
28 80 89 -4 43 -40 53 -59 17z m49 -21 c6 -52 -38 -88 -66 -54 -17 20 2 40 28
32 21 -7 23 -5 17 25 -5 23 -3 30 6 28 6 -3 13 -16 15 -31z"/>
<path d="M1290 433 c33 -23 49 -44 50 -66 0 -21 20 -13 20 8 0 20 -56 75 -76
75 -15 0 -14 -3 6 -17z"/>
<path d="M1240 416 c0 -8 -5 -18 -12 -22 -7 -4 -8 -3 -4 4 4 7 3 12 -3 12 -20
0 -19 -17 2 -55 21 -38 67 -62 67 -36 0 6 7 11 15 11 24 0 18 48 -10 75 -27
28 -55 33 -55 11z m60 -37 c18 -33 10 -38 -18 -11 -15 15 -26 30 -25 34 6 11
33 -3 43 -23z m-34 -12 c8 3 14 -1 14 -11 0 -9 -8 -16 -19 -16 -23 0 -35 15
-25 32 6 9 9 9 11 1 3 -7 11 -9 19 -6z"/>
<path d="M1132 412 c-19 -13 -4 -87 23 -116 26 -28 60 -26 68 4 6 25 -27 96
-51 109 -24 13 -23 13 -40 3z m50 -29 c23 -27 30 -54 17 -69 -6 -8 -15 -14
-20 -14 -14 0 -39 31 -38 48 0 12 3 11 9 -5 12 -31 40 -30 40 1 0 29 -22 49
-44 40 -9 -3 -16 -1 -16 5 0 17 35 13 52 -6z m-2 -34 c0 -5 -4 -9 -8 -9 -5 0
-9 7 -9 15 0 8 4 12 9 9 4 -3 8 -9 8 -15z"/>
<path d="M667 389 c9 -9 6 -17 -13 -31 -13 -11 -24 -28 -24 -39 0 -24 29 -37
41 -18 6 10 9 7 9 -12 0 -33 35 -67 56 -54 9 6 14 12 12 15 -1 3 5 16 15 30
22 32 22 63 -2 84 -22 20 -56 9 -65 -22 -6 -18 -46 -28 -46 -12 0 5 12 18 27
30 22 17 25 23 13 30 -21 14 -36 12 -23 -1z m98 -48 c7 -24 -4 -51 -21 -51
-21 0 -17 40 4 40 13 1 11 4 -8 15 -24 14 -24 14 -3 15 13 0 24 -8 28 -19z
m-45 -21 c-14 -26 -5 -57 18 -64 9 -2 6 -4 -8 -3 -19 2 -26 8 -28 30 -4 34 3
57 18 57 8 0 7 -6 0 -20z"/>
<path d="M840 354 c-15 -37 -12 -90 4 -104 8 -6 25 -10 38 -8 20 3 23 9 26 56
2 31 -2 60 -9 68 -18 22 -48 17 -59 -12z m48 4 c15 -15 16 -70 0 -86 -18 -18
-48 4 -47 36 l1 27 7 -25 c10 -37 35 -32 39 8 3 27 0 32 -18 32 -12 0 -18 5
-15 10 8 13 18 13 33 -2z m-11 -38 c-1 -11 -5 -20 -9 -20 -10 0 -10 4 -2 24 8
22 13 20 11 -4z"/>
<path d="M929 363 c-13 -15 -12 -15 8 -3 28 18 50 1 59 -47 8 -44 -11 -68 -25
-32 l-10 24 0 -23 c-1 -31 -25 -24 -29 8 -3 15 3 29 14 37 16 12 16 13 1 13
-21 0 -33 -44 -21 -79 17 -46 83 -32 85 18 0 14 4 34 7 43 7 16 10 16 35 -7
35 -33 35 -55 1 -55 -24 0 -25 3 -19 33 5 24 4 28 -4 17 -6 -8 -11 -27 -11
-41 0 -23 4 -26 30 -25 38 2 53 22 37 50 -6 12 -11 30 -11 41 -1 16 -7 19 -31
17 -16 -2 -32 -8 -36 -13 -3 -5 -11 2 -17 16 -13 29 -43 33 -63 8z"/>
</g>
</svg>
